<mxfile host="app.diagrams.net" agent="Mozilla/5.0 (Windows NT 10.0; Win64; x64) AppleWebKit/537.36 (KHTML, like Gecko) Chrome/129.0.0.0 Safari/537.36" version="24.7.17" pages="2">
  <diagram name="Page-1" id="VlkeQ9_y8bMPjhdk2_KC">
    <mxGraphModel dx="2150" dy="2039" grid="0" gridSize="10" guides="1" tooltips="1" connect="1" arrows="1" fold="1" page="1" pageScale="1" pageWidth="827" pageHeight="1169" math="0" shadow="0">
      <root>
        <mxCell id="0" />
        <mxCell id="1" parent="0" />
        <mxCell id="3MvgEApR7jYqYZIbGW3X-1" value="" style="verticalLabelPosition=bottom;aspect=fixed;html=1;shape=mxgraph.salesforce.iot2;" parent="1" vertex="1">
          <mxGeometry x="40" y="60" width="60" height="60" as="geometry" />
        </mxCell>
        <mxCell id="3MvgEApR7jYqYZIbGW3X-6" style="edgeStyle=orthogonalEdgeStyle;rounded=0;orthogonalLoop=1;jettySize=auto;html=1;" parent="1" source="3MvgEApR7jYqYZIbGW3X-2" target="3MvgEApR7jYqYZIbGW3X-4" edge="1">
          <mxGeometry relative="1" as="geometry">
            <mxPoint x="160" y="243.5" as="targetPoint" />
            <Array as="points" />
          </mxGeometry>
        </mxCell>
        <mxCell id="3MvgEApR7jYqYZIbGW3X-2" value="" style="image;aspect=fixed;html=1;points=[];align=center;fontSize=12;image=img/lib/azure2/general/Log_Streaming.svg;" parent="1" vertex="1">
          <mxGeometry x="40" y="215.5" width="56.00000000000001" height="67" as="geometry" />
        </mxCell>
        <mxCell id="3MvgEApR7jYqYZIbGW3X-32" style="edgeStyle=orthogonalEdgeStyle;rounded=0;orthogonalLoop=1;jettySize=auto;html=1;" parent="1" source="3MvgEApR7jYqYZIbGW3X-3" target="3MvgEApR7jYqYZIbGW3X-4" edge="1">
          <mxGeometry relative="1" as="geometry">
            <Array as="points">
              <mxPoint x="230" y="415" />
            </Array>
          </mxGeometry>
        </mxCell>
        <mxCell id="3MvgEApR7jYqYZIbGW3X-3" value="" style="image;sketch=0;aspect=fixed;html=1;points=[];align=center;fontSize=12;image=img/lib/mscae/dep/SQL_Server_Stretch_DB.svg;" parent="1" vertex="1">
          <mxGeometry x="40" y="350" width="50" height="50" as="geometry" />
        </mxCell>
        <mxCell id="3MvgEApR7jYqYZIbGW3X-38" style="edgeStyle=none;rounded=0;orthogonalLoop=1;jettySize=auto;html=1;" parent="1" source="3MvgEApR7jYqYZIbGW3X-4" target="3MvgEApR7jYqYZIbGW3X-37" edge="1">
          <mxGeometry relative="1" as="geometry" />
        </mxCell>
        <mxCell id="3MvgEApR7jYqYZIbGW3X-4" value="" style="sketch=0;points=[[0,0,0],[0.25,0,0],[0.5,0,0],[0.75,0,0],[1,0,0],[0,1,0],[0.25,1,0],[0.5,1,0],[0.75,1,0],[1,1,0],[0,0.25,0],[0,0.5,0],[0,0.75,0],[1,0.25,0],[1,0.5,0],[1,0.75,0]];outlineConnect=0;fontColor=#232F3E;fillColor=#8C4FFF;strokeColor=#ffffff;dashed=0;verticalLabelPosition=bottom;verticalAlign=top;align=center;html=1;fontSize=12;fontStyle=0;aspect=fixed;shape=mxgraph.aws4.resourceIcon;resIcon=mxgraph.aws4.kinesis_data_streams;" parent="1" vertex="1">
          <mxGeometry x="220" y="210" width="78" height="78" as="geometry" />
        </mxCell>
        <mxCell id="3MvgEApR7jYqYZIbGW3X-8" value="" style="sketch=0;points=[[0,0,0],[0.25,0,0],[0.5,0,0],[0.75,0,0],[1,0,0],[0,1,0],[0.25,1,0],[0.5,1,0],[0.75,1,0],[1,1,0],[0,0.25,0],[0,0.5,0],[0,0.75,0],[1,0.25,0],[1,0.5,0],[1,0.75,0]];outlineConnect=0;fontColor=#232F3E;fillColor=#8C4FFF;strokeColor=#ffffff;dashed=0;verticalLabelPosition=bottom;verticalAlign=top;align=center;html=1;fontSize=12;fontStyle=0;aspect=fixed;shape=mxgraph.aws4.resourceIcon;resIcon=mxgraph.aws4.kinesis_data_firehose;" parent="1" vertex="1">
          <mxGeometry x="520" y="210" width="78" height="78" as="geometry" />
        </mxCell>
        <mxCell id="3MvgEApR7jYqYZIbGW3X-15" style="edgeStyle=orthogonalEdgeStyle;rounded=0;orthogonalLoop=1;jettySize=auto;html=1;entryX=0.5;entryY=0;entryDx=0;entryDy=0;entryPerimeter=0;" parent="1" source="3MvgEApR7jYqYZIbGW3X-9" target="3MvgEApR7jYqYZIbGW3X-14" edge="1">
          <mxGeometry relative="1" as="geometry">
            <mxPoint x="700" y="41" as="targetPoint" />
            <Array as="points">
              <mxPoint x="699" y="70" />
            </Array>
          </mxGeometry>
        </mxCell>
        <mxCell id="3MvgEApR7jYqYZIbGW3X-16" style="edgeStyle=orthogonalEdgeStyle;rounded=0;orthogonalLoop=1;jettySize=auto;html=1;entryX=0.5;entryY=0;entryDx=0;entryDy=0;entryPerimeter=0;" parent="1" source="3MvgEApR7jYqYZIbGW3X-9" target="3MvgEApR7jYqYZIbGW3X-4" edge="1">
          <mxGeometry relative="1" as="geometry">
            <mxPoint x="250" y="40" as="targetPoint" />
          </mxGeometry>
        </mxCell>
        <mxCell id="3MvgEApR7jYqYZIbGW3X-55" style="edgeStyle=none;rounded=0;orthogonalLoop=1;jettySize=auto;html=1;fontFamily=Helvetica;fontSize=12;fontColor=#232F3E;fontStyle=0;" parent="1" source="3MvgEApR7jYqYZIbGW3X-9" target="3MvgEApR7jYqYZIbGW3X-37" edge="1">
          <mxGeometry relative="1" as="geometry" />
        </mxCell>
        <mxCell id="3MvgEApR7jYqYZIbGW3X-9" value="" style="outlineConnect=0;dashed=0;verticalLabelPosition=bottom;verticalAlign=top;align=center;html=1;shape=mxgraph.aws3.kinesis;fillColor=#F58534;gradientColor=none;" parent="1" vertex="1">
          <mxGeometry x="380" y="39" width="67.5" height="81" as="geometry" />
        </mxCell>
        <mxCell id="3MvgEApR7jYqYZIbGW3X-12" value="" style="edgeStyle=orthogonalEdgeStyle;rounded=0;orthogonalLoop=1;jettySize=auto;html=1;" parent="1" target="3MvgEApR7jYqYZIbGW3X-8" edge="1">
          <mxGeometry relative="1" as="geometry">
            <mxPoint x="448" y="249" as="sourcePoint" />
          </mxGeometry>
        </mxCell>
        <mxCell id="3MvgEApR7jYqYZIbGW3X-14" value="" style="sketch=0;points=[[0,0,0],[0.25,0,0],[0.5,0,0],[0.75,0,0],[1,0,0],[0,1,0],[0.25,1,0],[0.5,1,0],[0.75,1,0],[1,1,0],[0,0.25,0],[0,0.5,0],[0,0.75,0],[1,0.25,0],[1,0.5,0],[1,0.75,0]];outlineConnect=0;fontColor=#232F3E;fillColor=#7AA116;strokeColor=#ffffff;dashed=0;verticalLabelPosition=bottom;verticalAlign=top;align=center;html=1;fontSize=12;fontStyle=0;aspect=fixed;shape=mxgraph.aws4.resourceIcon;resIcon=mxgraph.aws4.s3;" parent="1" vertex="1">
          <mxGeometry x="661" y="210" width="78" height="78" as="geometry" />
        </mxCell>
        <mxCell id="3MvgEApR7jYqYZIbGW3X-18" style="edgeStyle=orthogonalEdgeStyle;rounded=0;orthogonalLoop=1;jettySize=auto;html=1;entryX=0;entryY=0.5;entryDx=0;entryDy=0;entryPerimeter=0;" parent="1" source="3MvgEApR7jYqYZIbGW3X-8" target="3MvgEApR7jYqYZIbGW3X-14" edge="1">
          <mxGeometry relative="1" as="geometry" />
        </mxCell>
        <mxCell id="3MvgEApR7jYqYZIbGW3X-19" style="edgeStyle=orthogonalEdgeStyle;rounded=0;orthogonalLoop=1;jettySize=auto;html=1;entryX=0.5;entryY=0;entryDx=0;entryDy=0;entryPerimeter=0;" parent="1" source="3MvgEApR7jYqYZIbGW3X-9" target="3MvgEApR7jYqYZIbGW3X-8" edge="1">
          <mxGeometry relative="1" as="geometry" />
        </mxCell>
        <mxCell id="3MvgEApR7jYqYZIbGW3X-22" style="edgeStyle=orthogonalEdgeStyle;rounded=0;orthogonalLoop=1;jettySize=auto;html=1;entryX=0.5;entryY=0;entryDx=0;entryDy=0;entryPerimeter=0;" parent="1" source="3MvgEApR7jYqYZIbGW3X-14" edge="1">
          <mxGeometry relative="1" as="geometry">
            <mxPoint x="699" y="432" as="targetPoint" />
          </mxGeometry>
        </mxCell>
        <mxCell id="3MvgEApR7jYqYZIbGW3X-29" style="edgeStyle=orthogonalEdgeStyle;rounded=0;orthogonalLoop=1;jettySize=auto;html=1;" parent="1" source="3MvgEApR7jYqYZIbGW3X-24" target="3MvgEApR7jYqYZIbGW3X-28" edge="1">
          <mxGeometry relative="1" as="geometry" />
        </mxCell>
        <mxCell id="3MvgEApR7jYqYZIbGW3X-24" value="" style="outlineConnect=0;dashed=0;verticalLabelPosition=bottom;verticalAlign=top;align=center;html=1;shape=mxgraph.aws3.redshift;fillColor=#2E73B8;gradientColor=none;" parent="1" vertex="1">
          <mxGeometry x="280" y="425" width="67.5" height="75" as="geometry" />
        </mxCell>
        <mxCell id="3MvgEApR7jYqYZIbGW3X-25" value="Amazon QuickSight" style="sketch=0;outlineConnect=0;fontColor=#232F3E;gradientColor=none;strokeColor=#ffffff;fillColor=#232F3E;dashed=0;verticalLabelPosition=middle;verticalAlign=bottom;align=center;html=1;whiteSpace=wrap;fontSize=10;fontStyle=1;spacing=3;shape=mxgraph.aws4.productIcon;prIcon=mxgraph.aws4.quicksight;" parent="1" vertex="1">
          <mxGeometry x="140" y="530" width="80" height="110" as="geometry" />
        </mxCell>
        <mxCell id="3MvgEApR7jYqYZIbGW3X-26" style="edgeStyle=orthogonalEdgeStyle;rounded=0;orthogonalLoop=1;jettySize=auto;html=1;entryX=1;entryY=0.341;entryDx=0;entryDy=0;entryPerimeter=0;" parent="1" source="3MvgEApR7jYqYZIbGW3X-24" target="3MvgEApR7jYqYZIbGW3X-25" edge="1">
          <mxGeometry relative="1" as="geometry" />
        </mxCell>
        <mxCell id="3MvgEApR7jYqYZIbGW3X-89" style="edgeStyle=elbowEdgeStyle;rounded=0;orthogonalLoop=1;jettySize=auto;elbow=vertical;html=1;entryX=0;entryY=0.75;entryDx=0;entryDy=0;fontFamily=Helvetica;fontSize=12;fontColor=#232F3E;fontStyle=0;" parent="1" source="3MvgEApR7jYqYZIbGW3X-28" target="3MvgEApR7jYqYZIbGW3X-80" edge="1">
          <mxGeometry relative="1" as="geometry" />
        </mxCell>
        <mxCell id="3MvgEApR7jYqYZIbGW3X-28" value="AWS Glue Notebook" style="sketch=0;outlineConnect=0;fontColor=#232F3E;gradientColor=none;strokeColor=#ffffff;fillColor=#232F3E;dashed=0;verticalLabelPosition=middle;verticalAlign=bottom;align=center;html=1;whiteSpace=wrap;fontSize=10;fontStyle=1;spacing=3;shape=mxgraph.aws4.productIcon;prIcon=mxgraph.aws4.glue;" parent="1" vertex="1">
          <mxGeometry x="20" y="530" width="80" height="110" as="geometry" />
        </mxCell>
        <mxCell id="3MvgEApR7jYqYZIbGW3X-37" value="Lambda Function" style="sketch=0;outlineConnect=0;fontColor=#232F3E;gradientColor=none;strokeColor=#232F3E;fillColor=#ffffff;dashed=0;verticalLabelPosition=bottom;verticalAlign=top;align=center;html=1;fontSize=12;fontStyle=0;aspect=fixed;shape=mxgraph.aws4.resourceIcon;resIcon=mxgraph.aws4.lambda_function;" parent="1" vertex="1">
          <mxGeometry x="387.5" y="222.5" width="60" height="60" as="geometry" />
        </mxCell>
        <mxCell id="Pq5R9mwxjYYCd3PUhtwd-8" style="edgeStyle=orthogonalEdgeStyle;rounded=0;orthogonalLoop=1;jettySize=auto;html=1;" edge="1" parent="1" source="3MvgEApR7jYqYZIbGW3X-39" target="3MvgEApR7jYqYZIbGW3X-46">
          <mxGeometry relative="1" as="geometry" />
        </mxCell>
        <mxCell id="3MvgEApR7jYqYZIbGW3X-39" value="Lambda Function" style="sketch=0;outlineConnect=0;fontColor=#232F3E;gradientColor=none;strokeColor=#232F3E;fillColor=#ffffff;dashed=0;verticalLabelPosition=bottom;verticalAlign=top;align=center;html=1;fontSize=12;fontStyle=0;aspect=fixed;shape=mxgraph.aws4.resourceIcon;resIcon=mxgraph.aws4.lambda_function;" parent="1" vertex="1">
          <mxGeometry x="670" y="433.5" width="60" height="60" as="geometry" />
        </mxCell>
        <mxCell id="3MvgEApR7jYqYZIbGW3X-41" value="Kinesis Data Stream" style="text;html=1;align=center;verticalAlign=middle;whiteSpace=wrap;rounded=0;fontFamily=Helvetica;fontSize=12;fontColor=#232F3E;fontStyle=0;" parent="1" vertex="1">
          <mxGeometry x="229" y="300" width="60" height="30" as="geometry" />
        </mxCell>
        <mxCell id="3MvgEApR7jYqYZIbGW3X-42" value="Kinesis DataFirehouse" style="text;html=1;align=center;verticalAlign=middle;whiteSpace=wrap;rounded=0;fontFamily=Helvetica;fontSize=12;fontColor=#232F3E;fontStyle=0;" parent="1" vertex="1">
          <mxGeometry x="538" y="300" width="60" height="30" as="geometry" />
        </mxCell>
        <mxCell id="3MvgEApR7jYqYZIbGW3X-43" value="" style="text;whiteSpace=wrap;html=1;fontFamily=Helvetica;fontSize=12;fontColor=#232F3E;fontStyle=0;" parent="1" vertex="1">
          <mxGeometry x="140" y="530" width="60" height="50" as="geometry" />
        </mxCell>
        <mxCell id="3MvgEApR7jYqYZIbGW3X-46" value="Lambda Function" style="sketch=0;outlineConnect=0;fontColor=#232F3E;gradientColor=none;strokeColor=#232F3E;fillColor=#ffffff;dashed=0;verticalLabelPosition=bottom;verticalAlign=top;align=center;html=1;fontSize=12;fontStyle=0;aspect=fixed;shape=mxgraph.aws4.resourceIcon;resIcon=mxgraph.aws4.lambda_function;" parent="1" vertex="1">
          <mxGeometry x="478" y="433.5" width="60" height="60" as="geometry" />
        </mxCell>
        <mxCell id="3MvgEApR7jYqYZIbGW3X-50" style="edgeStyle=none;rounded=0;orthogonalLoop=1;jettySize=auto;html=1;entryX=1;entryY=0.53;entryDx=0;entryDy=0;entryPerimeter=0;fontFamily=Helvetica;fontSize=12;fontColor=#232F3E;fontStyle=0;" parent="1" source="3MvgEApR7jYqYZIbGW3X-46" target="3MvgEApR7jYqYZIbGW3X-24" edge="1">
          <mxGeometry relative="1" as="geometry" />
        </mxCell>
        <mxCell id="3MvgEApR7jYqYZIbGW3X-51" value="Redshift" style="text;html=1;align=center;verticalAlign=middle;whiteSpace=wrap;rounded=0;fontFamily=Helvetica;fontSize=12;fontColor=#232F3E;fontStyle=0;" parent="1" vertex="1">
          <mxGeometry x="287.5" y="510" width="60" height="30" as="geometry" />
        </mxCell>
        <mxCell id="3MvgEApR7jYqYZIbGW3X-53" value="Step Function" style="text;html=1;align=center;verticalAlign=middle;whiteSpace=wrap;rounded=0;fontFamily=Helvetica;fontSize=12;fontColor=#232F3E;fontStyle=0;" parent="1" vertex="1">
          <mxGeometry x="384" y="9" width="60" height="30" as="geometry" />
        </mxCell>
        <mxCell id="3MvgEApR7jYqYZIbGW3X-56" value="" style="text;whiteSpace=wrap;html=1;fontFamily=Helvetica;fontSize=12;fontColor=#232F3E;fontStyle=0;" parent="1" vertex="1">
          <mxGeometry x="410" y="20" width="60" height="50" as="geometry" />
        </mxCell>
        <mxCell id="3MvgEApR7jYqYZIbGW3X-57" value="S3 Bucket" style="text;html=1;align=center;verticalAlign=middle;whiteSpace=wrap;rounded=0;fontFamily=Helvetica;fontSize=12;fontColor=#232F3E;fontStyle=0;" parent="1" vertex="1">
          <mxGeometry x="679" y="288" width="60" height="30" as="geometry" />
        </mxCell>
        <mxCell id="3MvgEApR7jYqYZIbGW3X-58" value="IoT" style="text;html=1;align=center;verticalAlign=middle;whiteSpace=wrap;rounded=0;fontFamily=Helvetica;fontSize=12;fontColor=#232F3E;fontStyle=0;" parent="1" vertex="1">
          <mxGeometry x="40" y="120" width="60" height="30" as="geometry" />
        </mxCell>
        <mxCell id="3MvgEApR7jYqYZIbGW3X-59" value="Streaming Logs" style="text;html=1;align=center;verticalAlign=middle;whiteSpace=wrap;rounded=0;fontFamily=Helvetica;fontSize=12;fontColor=#232F3E;fontStyle=0;" parent="1" vertex="1">
          <mxGeometry x="40" y="288" width="60" height="30" as="geometry" />
        </mxCell>
        <mxCell id="3MvgEApR7jYqYZIbGW3X-60" value="DataBase Server" style="text;html=1;align=center;verticalAlign=middle;whiteSpace=wrap;rounded=0;fontFamily=Helvetica;fontSize=12;fontColor=#232F3E;fontStyle=0;" parent="1" vertex="1">
          <mxGeometry x="35" y="420" width="60" height="30" as="geometry" />
        </mxCell>
        <mxCell id="3MvgEApR7jYqYZIbGW3X-65" value="" style="rounded=1;whiteSpace=wrap;html=1;dashed=0;sketch=0;strokeColor=#da2f10;align=center;verticalAlign=top;fontFamily=Helvetica;fontSize=12;fontColor=#232F3E;fontStyle=0;fillColor=none;gradientColor=default;strokeWidth=2;" parent="1" vertex="1">
          <mxGeometry x="20" y="50" width="110" height="420" as="geometry" />
        </mxCell>
        <mxCell id="3MvgEApR7jYqYZIbGW3X-70" value="" style="rounded=1;whiteSpace=wrap;html=1;dashed=0;sketch=0;strokeColor=#da2f10;align=center;verticalAlign=top;fontFamily=Helvetica;fontSize=12;fontColor=#232F3E;fontStyle=0;fillColor=none;gradientColor=default;strokeWidth=2;" parent="1" vertex="1">
          <mxGeometry y="500" width="230" height="150" as="geometry" />
        </mxCell>
        <mxCell id="3MvgEApR7jYqYZIbGW3X-71" value="&lt;h1 style=&quot;margin-top: 0px;&quot;&gt;Data Source&lt;/h1&gt;" style="text;html=1;whiteSpace=wrap;overflow=hidden;rounded=0;fontFamily=Helvetica;fontSize=12;fontColor=#232F3E;fontStyle=0;" parent="1" vertex="1">
          <mxGeometry y="-0.5" width="180" height="49" as="geometry" />
        </mxCell>
        <mxCell id="3MvgEApR7jYqYZIbGW3X-72" value="&lt;h1 style=&quot;margin-top: 0px;&quot;&gt;Data Mining &amp;amp; Ingestion to Data Lakehouse&amp;nbsp;&lt;/h1&gt;" style="text;html=1;whiteSpace=wrap;overflow=hidden;rounded=0;fontFamily=Helvetica;fontSize=12;fontColor=#232F3E;fontStyle=0;" parent="1" vertex="1">
          <mxGeometry x="230" y="-49.5" width="520" height="49" as="geometry" />
        </mxCell>
        <mxCell id="3MvgEApR7jYqYZIbGW3X-74" value="&lt;h1 style=&quot;margin-top: 0px;&quot;&gt;&lt;font style=&quot;font-size: 21px;&quot;&gt;Cleaning, Transformation &amp;amp; Land To Warehouse&lt;/font&gt;&lt;/h1&gt;" style="text;html=1;whiteSpace=wrap;overflow=hidden;rounded=0;fontFamily=Helvetica;fontSize=12;fontStyle=0;" parent="1" vertex="1">
          <mxGeometry x="256" y="361" width="520" height="49" as="geometry" />
        </mxCell>
        <mxCell id="3MvgEApR7jYqYZIbGW3X-75" value="&lt;h3 style=&quot;border: 0px solid rgb(227, 227, 227); box-sizing: border-box; --tw-border-spacing-x: 0; --tw-border-spacing-y: 0; --tw-translate-x: 0; --tw-translate-y: 0; --tw-rotate: 0; --tw-skew-x: 0; --tw-skew-y: 0; --tw-scale-x: 1; --tw-scale-y: 1; --tw-pan-x: ; --tw-pan-y: ; --tw-pinch-zoom: ; --tw-scroll-snap-strictness: proximity; --tw-gradient-from-position: ; --tw-gradient-via-position: ; --tw-gradient-to-position: ; --tw-ordinal: ; --tw-slashed-zero: ; --tw-numeric-figure: ; --tw-numeric-spacing: ; --tw-numeric-fraction: ; --tw-ring-inset: ; --tw-ring-offset-width: 0px; --tw-ring-offset-color: #fff; --tw-ring-color: rgba(69,89,164,.5); --tw-ring-offset-shadow: 0 0 #0000; --tw-ring-shadow: 0 0 #0000; --tw-shadow: 0 0 #0000; --tw-shadow-colored: 0 0 #0000; --tw-blur: ; --tw-brightness: ; --tw-contrast: ; --tw-grayscale: ; --tw-hue-rotate: ; --tw-invert: ; --tw-saturate: ; --tw-sepia: ; --tw-drop-shadow: ; --tw-backdrop-blur: ; --tw-backdrop-brightness: ; --tw-backdrop-contrast: ; --tw-backdrop-grayscale: ; --tw-backdrop-hue-rotate: ; --tw-backdrop-invert: ; --tw-backdrop-opacity: ; --tw-backdrop-saturate: ; --tw-backdrop-sepia: ; --tw-contain-size: ; --tw-contain-layout: ; --tw-contain-paint: ; --tw-contain-style: ; scrollbar-color: var(--gray-200) transparent; font-weight: 600; margin: 1rem 0px 0.5rem; line-height: 1.6; color: rgb(13, 13, 13); font-family: ui-sans-serif, -apple-system, system-ui, &amp;quot;Segoe UI&amp;quot;, Helvetica, &amp;quot;Apple Color Emoji&amp;quot;, Arial, sans-serif, &amp;quot;Segoe UI Emoji&amp;quot;, &amp;quot;Segoe UI Symbol&amp;quot;; font-style: normal; font-variant-ligatures: normal; font-variant-caps: normal; letter-spacing: normal; orphans: 2; text-align: start; text-indent: 0px; text-transform: none; widows: 2; word-spacing: 0px; -webkit-text-stroke-width: 0px; white-space: normal; background-color: rgb(255, 255, 255); text-decoration-thickness: initial; text-decoration-style: initial; text-decoration-color: initial;&quot;&gt;&lt;strong style=&quot;border: 0px solid rgb(227, 227, 227); box-sizing: border-box; --tw-border-spacing-x: 0; --tw-border-spacing-y: 0; --tw-translate-x: 0; --tw-translate-y: 0; --tw-rotate: 0; --tw-skew-x: 0; --tw-skew-y: 0; --tw-scale-x: 1; --tw-scale-y: 1; --tw-pan-x: ; --tw-pan-y: ; --tw-pinch-zoom: ; --tw-scroll-snap-strictness: proximity; --tw-gradient-from-position: ; --tw-gradient-via-position: ; --tw-gradient-to-position: ; --tw-ordinal: ; --tw-slashed-zero: ; --tw-numeric-figure: ; --tw-numeric-spacing: ; --tw-numeric-fraction: ; --tw-ring-inset: ; --tw-ring-offset-width: 0px; --tw-ring-offset-color: #fff; --tw-ring-color: rgba(69,89,164,.5); --tw-ring-offset-shadow: 0 0 #0000; --tw-ring-shadow: 0 0 #0000; --tw-shadow: 0 0 #0000; --tw-shadow-colored: 0 0 #0000; --tw-blur: ; --tw-brightness: ; --tw-contrast: ; --tw-grayscale: ; --tw-hue-rotate: ; --tw-invert: ; --tw-saturate: ; --tw-sepia: ; --tw-drop-shadow: ; --tw-backdrop-blur: ; --tw-backdrop-brightness: ; --tw-backdrop-contrast: ; --tw-backdrop-grayscale: ; --tw-backdrop-hue-rotate: ; --tw-backdrop-invert: ; --tw-backdrop-opacity: ; --tw-backdrop-saturate: ; --tw-backdrop-sepia: ; --tw-contain-size: ; --tw-contain-layout: ; --tw-contain-paint: ; --tw-contain-style: ; scrollbar-color: var(--main-surface-tertiary) transparent; font-weight: 700; color: inherit;&quot;&gt;&lt;font style=&quot;font-size: 16px;&quot;&gt;Data Analysis and Visualization&lt;/font&gt;&lt;/strong&gt;&lt;/h3&gt;" style="text;whiteSpace=wrap;html=1;fontFamily=Helvetica;fontSize=12;fontColor=#232F3E;fontStyle=0;" parent="1" vertex="1">
          <mxGeometry x="12.5" y="640" width="250" height="60" as="geometry" />
        </mxCell>
        <mxCell id="3MvgEApR7jYqYZIbGW3X-76" value="" style="outlineConnect=0;dashed=0;verticalLabelPosition=bottom;verticalAlign=top;align=center;html=1;shape=mxgraph.aws3.android;fillColor=#FFD44F;gradientColor=none;sketch=0;strokeColor=#ffffff;fontFamily=Helvetica;fontSize=12;fontColor=#232F3E;fontStyle=0;" parent="1" vertex="1">
          <mxGeometry x="421.25" y="650" width="73.5" height="84" as="geometry" />
        </mxCell>
        <mxCell id="3MvgEApR7jYqYZIbGW3X-77" value="" style="image;aspect=fixed;html=1;points=[];align=center;fontSize=12;image=img/lib/azure2/databases/Azure_SQL.svg;dashed=0;sketch=0;strokeColor=#ffffff;verticalAlign=top;fontFamily=Helvetica;fontColor=#232F3E;fontStyle=0;fillColor=#8C4FFF;" parent="1" vertex="1">
          <mxGeometry x="606" y="667" width="64" height="46" as="geometry" />
        </mxCell>
        <mxCell id="3MvgEApR7jYqYZIbGW3X-80" value="" style="rounded=1;whiteSpace=wrap;html=1;dashed=0;sketch=0;strokeColor=#da2f10;align=center;verticalAlign=top;fontFamily=Helvetica;fontSize=12;fontColor=#232F3E;fontStyle=0;fillColor=none;gradientColor=default;strokeWidth=2;" parent="1" vertex="1">
          <mxGeometry x="289" y="640" width="510" height="138" as="geometry" />
        </mxCell>
        <mxCell id="3MvgEApR7jYqYZIbGW3X-84" style="edgeStyle=elbowEdgeStyle;rounded=0;orthogonalLoop=1;jettySize=auto;elbow=vertical;html=1;fontFamily=Helvetica;fontSize=12;fontColor=#232F3E;fontStyle=0;" parent="1" source="3MvgEApR7jYqYZIbGW3X-39" target="3MvgEApR7jYqYZIbGW3X-80" edge="1">
          <mxGeometry relative="1" as="geometry">
            <Array as="points">
              <mxPoint x="700" y="630" />
            </Array>
          </mxGeometry>
        </mxCell>
        <mxCell id="3MvgEApR7jYqYZIbGW3X-85" style="edgeStyle=elbowEdgeStyle;rounded=0;orthogonalLoop=1;jettySize=auto;elbow=vertical;html=1;fontFamily=Helvetica;fontSize=12;fontColor=#232F3E;fontStyle=0;" parent="1" source="3MvgEApR7jYqYZIbGW3X-37" edge="1">
          <mxGeometry relative="1" as="geometry">
            <mxPoint x="420" y="640" as="targetPoint" />
            <Array as="points">
              <mxPoint x="420" y="610" />
            </Array>
          </mxGeometry>
        </mxCell>
        <mxCell id="3MvgEApR7jYqYZIbGW3X-90" value="Python" style="text;html=1;align=center;verticalAlign=middle;whiteSpace=wrap;rounded=0;fontFamily=Helvetica;fontSize=12;fontColor=#232F3E;fontStyle=0;" parent="1" vertex="1">
          <mxGeometry x="428" y="740" width="60" height="30" as="geometry" />
        </mxCell>
        <mxCell id="3MvgEApR7jYqYZIbGW3X-91" value="SQL" style="text;html=1;align=center;verticalAlign=middle;whiteSpace=wrap;rounded=0;fontFamily=Helvetica;fontSize=12;fontColor=#232F3E;fontStyle=0;" parent="1" vertex="1">
          <mxGeometry x="601" y="734" width="60" height="30" as="geometry" />
        </mxCell>
        <mxCell id="3MvgEApR7jYqYZIbGW3X-92" value="&lt;h3 style=&quot;border: 0px solid rgb(227, 227, 227); box-sizing: border-box; --tw-border-spacing-x: 0; --tw-border-spacing-y: 0; --tw-translate-x: 0; --tw-translate-y: 0; --tw-rotate: 0; --tw-skew-x: 0; --tw-skew-y: 0; --tw-scale-x: 1; --tw-scale-y: 1; --tw-pan-x: ; --tw-pan-y: ; --tw-pinch-zoom: ; --tw-scroll-snap-strictness: proximity; --tw-gradient-from-position: ; --tw-gradient-via-position: ; --tw-gradient-to-position: ; --tw-ordinal: ; --tw-slashed-zero: ; --tw-numeric-figure: ; --tw-numeric-spacing: ; --tw-numeric-fraction: ; --tw-ring-inset: ; --tw-ring-offset-width: 0px; --tw-ring-offset-color: #fff; --tw-ring-color: rgba(69,89,164,.5); --tw-ring-offset-shadow: 0 0 #0000; --tw-ring-shadow: 0 0 #0000; --tw-shadow: 0 0 #0000; --tw-shadow-colored: 0 0 #0000; --tw-blur: ; --tw-brightness: ; --tw-contrast: ; --tw-grayscale: ; --tw-hue-rotate: ; --tw-invert: ; --tw-saturate: ; --tw-sepia: ; --tw-drop-shadow: ; --tw-backdrop-blur: ; --tw-backdrop-brightness: ; --tw-backdrop-contrast: ; --tw-backdrop-grayscale: ; --tw-backdrop-hue-rotate: ; --tw-backdrop-invert: ; --tw-backdrop-opacity: ; --tw-backdrop-saturate: ; --tw-backdrop-sepia: ; --tw-contain-size: ; --tw-contain-layout: ; --tw-contain-paint: ; --tw-contain-style: ; scrollbar-color: var(--gray-200) transparent; font-weight: 600; margin: 1rem 0px 0.5rem; line-height: 1.6; color: rgb(13, 13, 13); font-family: ui-sans-serif, -apple-system, system-ui, &amp;quot;Segoe UI&amp;quot;, Helvetica, &amp;quot;Apple Color Emoji&amp;quot;, Arial, sans-serif, &amp;quot;Segoe UI Emoji&amp;quot;, &amp;quot;Segoe UI Symbol&amp;quot;; font-style: normal; font-variant-ligatures: normal; font-variant-caps: normal; letter-spacing: normal; orphans: 2; text-align: start; text-indent: 0px; text-transform: none; widows: 2; word-spacing: 0px; -webkit-text-stroke-width: 0px; white-space: normal; background-color: rgb(255, 255, 255); text-decoration-thickness: initial; text-decoration-style: initial; text-decoration-color: initial;&quot;&gt;&lt;strong style=&quot;border: 0px solid rgb(227, 227, 227); box-sizing: border-box; --tw-border-spacing-x: 0; --tw-border-spacing-y: 0; --tw-translate-x: 0; --tw-translate-y: 0; --tw-rotate: 0; --tw-skew-x: 0; --tw-skew-y: 0; --tw-scale-x: 1; --tw-scale-y: 1; --tw-pan-x: ; --tw-pan-y: ; --tw-pinch-zoom: ; --tw-scroll-snap-strictness: proximity; --tw-gradient-from-position: ; --tw-gradient-via-position: ; --tw-gradient-to-position: ; --tw-ordinal: ; --tw-slashed-zero: ; --tw-numeric-figure: ; --tw-numeric-spacing: ; --tw-numeric-fraction: ; --tw-ring-inset: ; --tw-ring-offset-width: 0px; --tw-ring-offset-color: #fff; --tw-ring-color: rgba(69,89,164,.5); --tw-ring-offset-shadow: 0 0 #0000; --tw-ring-shadow: 0 0 #0000; --tw-shadow: 0 0 #0000; --tw-shadow-colored: 0 0 #0000; --tw-blur: ; --tw-brightness: ; --tw-contrast: ; --tw-grayscale: ; --tw-hue-rotate: ; --tw-invert: ; --tw-saturate: ; --tw-sepia: ; --tw-drop-shadow: ; --tw-backdrop-blur: ; --tw-backdrop-brightness: ; --tw-backdrop-contrast: ; --tw-backdrop-grayscale: ; --tw-backdrop-hue-rotate: ; --tw-backdrop-invert: ; --tw-backdrop-opacity: ; --tw-backdrop-saturate: ; --tw-backdrop-sepia: ; --tw-contain-size: ; --tw-contain-layout: ; --tw-contain-paint: ; --tw-contain-style: ; scrollbar-color: var(--main-surface-tertiary) transparent; font-weight: 700; color: inherit;&quot;&gt;&lt;font style=&quot;font-size: 16px;&quot;&gt;Scripting Language&lt;/font&gt;&lt;/strong&gt;&lt;/h3&gt;" style="text;whiteSpace=wrap;html=1;fontFamily=Helvetica;fontSize=12;fontColor=#232F3E;fontStyle=0;" parent="1" vertex="1">
          <mxGeometry x="538" y="560" width="159" height="60" as="geometry" />
        </mxCell>
        <mxCell id="3MvgEApR7jYqYZIbGW3X-68" value="" style="rounded=1;whiteSpace=wrap;html=1;dashed=0;sketch=0;strokeColor=#da2f10;align=center;verticalAlign=top;fontFamily=Helvetica;fontSize=12;fontColor=#232F3E;fontStyle=0;fillColor=none;gradientColor=default;strokeWidth=2;" parent="1" vertex="1">
          <mxGeometry x="160" y="-0.5" width="616" height="350" as="geometry" />
        </mxCell>
        <mxCell id="Pq5R9mwxjYYCd3PUhtwd-3" style="edgeStyle=orthogonalEdgeStyle;rounded=0;orthogonalLoop=1;jettySize=auto;html=1;entryX=0.25;entryY=0;entryDx=0;entryDy=0;entryPerimeter=0;" edge="1" parent="1" source="3MvgEApR7jYqYZIbGW3X-1" target="3MvgEApR7jYqYZIbGW3X-4">
          <mxGeometry relative="1" as="geometry" />
        </mxCell>
        <mxCell id="3MvgEApR7jYqYZIbGW3X-69" value="" style="rounded=1;whiteSpace=wrap;html=1;dashed=0;sketch=0;strokeColor=#da2f10;align=center;verticalAlign=top;fontFamily=Helvetica;fontSize=12;fontColor=#232F3E;fontStyle=0;fillColor=none;gradientColor=default;strokeWidth=2;" parent="1" vertex="1">
          <mxGeometry x="256" y="400" width="487.5" height="140" as="geometry" />
        </mxCell>
        <mxCell id="Pq5R9mwxjYYCd3PUhtwd-6" value="" style="text;whiteSpace=wrap;html=1;" vertex="1" parent="1">
          <mxGeometry x="610" y="590" width="60" height="50" as="geometry" />
        </mxCell>
        <mxCell id="Pq5R9mwxjYYCd3PUhtwd-7" value="" style="text;whiteSpace=wrap;html=1;" vertex="1" parent="1">
          <mxGeometry x="600" y="590" width="60" height="50" as="geometry" />
        </mxCell>
        <mxCell id="Pq5R9mwxjYYCd3PUhtwd-9" style="edgeStyle=orthogonalEdgeStyle;rounded=0;orthogonalLoop=1;jettySize=auto;html=1;entryX=0.428;entryY=0.027;entryDx=0;entryDy=0;entryPerimeter=0;" edge="1" parent="1" source="3MvgEApR7jYqYZIbGW3X-46" target="3MvgEApR7jYqYZIbGW3X-80">
          <mxGeometry relative="1" as="geometry" />
        </mxCell>
        <mxCell id="Pq5R9mwxjYYCd3PUhtwd-10" value="&lt;br class=&quot;Apple-interchange-newline&quot;&gt;" style="text;whiteSpace=wrap;html=1;" vertex="1" parent="1">
          <mxGeometry x="520" y="900" width="30" height="40" as="geometry" />
        </mxCell>
      </root>
    </mxGraphModel>
  </diagram>
  <diagram id="nqviSvsVt3of5YQx-Qss" name="Page-2">
    <mxGraphModel dx="1985" dy="803" grid="0" gridSize="10" guides="1" tooltips="1" connect="1" arrows="1" fold="1" page="1" pageScale="1" pageWidth="827" pageHeight="1169" math="0" shadow="0">
      <root>
        <mxCell id="0" />
        <mxCell id="1" parent="0" />
        <mxCell id="DP5WLWnt--YZi4dTRAAo-23" style="edgeStyle=orthogonalEdgeStyle;rounded=0;orthogonalLoop=1;jettySize=auto;html=1;" edge="1" parent="1" source="DP5WLWnt--YZi4dTRAAo-1" target="DP5WLWnt--YZi4dTRAAo-2">
          <mxGeometry relative="1" as="geometry" />
        </mxCell>
        <mxCell id="DP5WLWnt--YZi4dTRAAo-1" value="" style="sketch=0;outlineConnect=0;fontColor=#232F3E;gradientColor=none;fillColor=#01A88D;strokeColor=none;dashed=0;verticalLabelPosition=bottom;verticalAlign=top;align=center;html=1;fontSize=12;fontStyle=0;aspect=fixed;shape=mxgraph.aws4.transfer_for_sftp_resource;" vertex="1" parent="1">
          <mxGeometry x="50" y="80" width="76" height="78" as="geometry" />
        </mxCell>
        <mxCell id="DP5WLWnt--YZi4dTRAAo-111" style="edgeStyle=elbowEdgeStyle;rounded=0;orthogonalLoop=1;jettySize=auto;html=1;" edge="1" parent="1" source="DP5WLWnt--YZi4dTRAAo-2">
          <mxGeometry relative="1" as="geometry">
            <mxPoint x="170" y="470" as="targetPoint" />
          </mxGeometry>
        </mxCell>
        <mxCell id="DP5WLWnt--YZi4dTRAAo-2" value="AWS Glue" style="sketch=0;outlineConnect=0;fontColor=#232F3E;gradientColor=none;strokeColor=#ffffff;fillColor=#232F3E;dashed=0;verticalLabelPosition=middle;verticalAlign=bottom;align=center;html=1;whiteSpace=wrap;fontSize=10;fontStyle=1;spacing=3;shape=mxgraph.aws4.productIcon;prIcon=mxgraph.aws4.glue;" vertex="1" parent="1">
          <mxGeometry x="130" y="270" width="80" height="100" as="geometry" />
        </mxCell>
        <mxCell id="DP5WLWnt--YZi4dTRAAo-110" style="edgeStyle=elbowEdgeStyle;rounded=0;orthogonalLoop=1;jettySize=auto;html=1;" edge="1" parent="1" source="DP5WLWnt--YZi4dTRAAo-3">
          <mxGeometry relative="1" as="geometry">
            <mxPoint x="390" y="470" as="targetPoint" />
          </mxGeometry>
        </mxCell>
        <mxCell id="DP5WLWnt--YZi4dTRAAo-3" value="AWS Glue" style="sketch=0;outlineConnect=0;fontColor=#232F3E;gradientColor=none;strokeColor=#ffffff;fillColor=#232F3E;dashed=0;verticalLabelPosition=middle;verticalAlign=bottom;align=center;html=1;whiteSpace=wrap;fontSize=10;fontStyle=1;spacing=3;shape=mxgraph.aws4.productIcon;prIcon=mxgraph.aws4.glue;" vertex="1" parent="1">
          <mxGeometry x="350" y="270" width="80" height="100" as="geometry" />
        </mxCell>
        <mxCell id="DP5WLWnt--YZi4dTRAAo-27" style="edgeStyle=orthogonalEdgeStyle;rounded=0;orthogonalLoop=1;jettySize=auto;html=1;" edge="1" parent="1" source="DP5WLWnt--YZi4dTRAAo-4">
          <mxGeometry relative="1" as="geometry">
            <mxPoint x="660" y="180" as="targetPoint" />
          </mxGeometry>
        </mxCell>
        <mxCell id="DP5WLWnt--YZi4dTRAAo-109" style="edgeStyle=elbowEdgeStyle;rounded=0;orthogonalLoop=1;jettySize=auto;html=1;" edge="1" parent="1" source="DP5WLWnt--YZi4dTRAAo-4">
          <mxGeometry relative="1" as="geometry">
            <mxPoint x="580" y="470" as="targetPoint" />
          </mxGeometry>
        </mxCell>
        <mxCell id="DP5WLWnt--YZi4dTRAAo-4" value="AWS Glue" style="sketch=0;outlineConnect=0;fontColor=#232F3E;gradientColor=none;strokeColor=#ffffff;fillColor=#232F3E;dashed=0;verticalLabelPosition=middle;verticalAlign=bottom;align=center;html=1;whiteSpace=wrap;fontSize=10;fontStyle=1;spacing=3;shape=mxgraph.aws4.productIcon;prIcon=mxgraph.aws4.glue;" vertex="1" parent="1">
          <mxGeometry x="540" y="270" width="80" height="100" as="geometry" />
        </mxCell>
        <mxCell id="DP5WLWnt--YZi4dTRAAo-46" style="edgeStyle=orthogonalEdgeStyle;rounded=0;orthogonalLoop=1;jettySize=auto;html=1;" edge="1" parent="1" source="DP5WLWnt--YZi4dTRAAo-5" target="DP5WLWnt--YZi4dTRAAo-12">
          <mxGeometry relative="1" as="geometry" />
        </mxCell>
        <mxCell id="DP5WLWnt--YZi4dTRAAo-112" style="edgeStyle=elbowEdgeStyle;rounded=0;orthogonalLoop=1;jettySize=auto;html=1;" edge="1" parent="1" source="DP5WLWnt--YZi4dTRAAo-5">
          <mxGeometry relative="1" as="geometry">
            <mxPoint x="780" y="470" as="targetPoint" />
          </mxGeometry>
        </mxCell>
        <mxCell id="DP5WLWnt--YZi4dTRAAo-5" value="AWS Glue" style="sketch=0;outlineConnect=0;fontColor=#232F3E;gradientColor=none;strokeColor=#ffffff;fillColor=#232F3E;dashed=0;verticalLabelPosition=middle;verticalAlign=bottom;align=center;html=1;whiteSpace=wrap;fontSize=10;fontStyle=1;spacing=3;shape=mxgraph.aws4.productIcon;prIcon=mxgraph.aws4.glue;" vertex="1" parent="1">
          <mxGeometry x="740" y="270" width="80" height="100" as="geometry" />
        </mxCell>
        <mxCell id="DP5WLWnt--YZi4dTRAAo-24" style="edgeStyle=orthogonalEdgeStyle;rounded=0;orthogonalLoop=1;jettySize=auto;html=1;" edge="1" parent="1" source="DP5WLWnt--YZi4dTRAAo-8" target="DP5WLWnt--YZi4dTRAAo-3">
          <mxGeometry relative="1" as="geometry" />
        </mxCell>
        <mxCell id="DP5WLWnt--YZi4dTRAAo-8" value="" style="sketch=0;points=[[0,0,0],[0.25,0,0],[0.5,0,0],[0.75,0,0],[1,0,0],[0,1,0],[0.25,1,0],[0.5,1,0],[0.75,1,0],[1,1,0],[0,0.25,0],[0,0.5,0],[0,0.75,0],[1,0.25,0],[1,0.5,0],[1,0.75,0]];outlineConnect=0;fontColor=#232F3E;fillColor=#7AA116;strokeColor=#ffffff;dashed=0;verticalLabelPosition=bottom;verticalAlign=top;align=center;html=1;fontSize=12;fontStyle=0;aspect=fixed;shape=mxgraph.aws4.resourceIcon;resIcon=mxgraph.aws4.s3;" vertex="1" parent="1">
          <mxGeometry x="250" y="101.5" width="78" height="78" as="geometry" />
        </mxCell>
        <mxCell id="DP5WLWnt--YZi4dTRAAo-26" style="edgeStyle=orthogonalEdgeStyle;rounded=0;orthogonalLoop=1;jettySize=auto;html=1;" edge="1" parent="1" source="DP5WLWnt--YZi4dTRAAo-11" target="DP5WLWnt--YZi4dTRAAo-4">
          <mxGeometry relative="1" as="geometry" />
        </mxCell>
        <mxCell id="DP5WLWnt--YZi4dTRAAo-11" value="" style="sketch=0;points=[[0,0,0],[0.25,0,0],[0.5,0,0],[0.75,0,0],[1,0,0],[0,1,0],[0.25,1,0],[0.5,1,0],[0.75,1,0],[1,1,0],[0,0.25,0],[0,0.5,0],[0,0.75,0],[1,0.25,0],[1,0.5,0],[1,0.75,0]];outlineConnect=0;fontColor=#232F3E;fillColor=#7AA116;strokeColor=#ffffff;dashed=0;verticalLabelPosition=bottom;verticalAlign=top;align=center;html=1;fontSize=12;fontStyle=0;aspect=fixed;shape=mxgraph.aws4.resourceIcon;resIcon=mxgraph.aws4.s3;" vertex="1" parent="1">
          <mxGeometry x="460" y="101.5" width="78" height="78" as="geometry" />
        </mxCell>
        <mxCell id="DP5WLWnt--YZi4dTRAAo-12" value="" style="outlineConnect=0;dashed=0;verticalLabelPosition=bottom;verticalAlign=top;align=center;html=1;shape=mxgraph.aws3.redshift;fillColor=#2E73B8;gradientColor=none;" vertex="1" parent="1">
          <mxGeometry x="860" y="101.5" width="67.5" height="75" as="geometry" />
        </mxCell>
        <mxCell id="DP5WLWnt--YZi4dTRAAo-20" style="edgeStyle=orthogonalEdgeStyle;rounded=0;orthogonalLoop=1;jettySize=auto;html=1;entryX=0.5;entryY=1;entryDx=0;entryDy=0;entryPerimeter=0;" edge="1" parent="1" source="DP5WLWnt--YZi4dTRAAo-3" target="DP5WLWnt--YZi4dTRAAo-11">
          <mxGeometry relative="1" as="geometry" />
        </mxCell>
        <mxCell id="DP5WLWnt--YZi4dTRAAo-29" style="edgeStyle=orthogonalEdgeStyle;rounded=0;orthogonalLoop=1;jettySize=auto;html=1;" edge="1" parent="1" source="DP5WLWnt--YZi4dTRAAo-25" target="DP5WLWnt--YZi4dTRAAo-5">
          <mxGeometry relative="1" as="geometry" />
        </mxCell>
        <mxCell id="DP5WLWnt--YZi4dTRAAo-25" value="" style="sketch=0;points=[[0,0,0],[0.25,0,0],[0.5,0,0],[0.75,0,0],[1,0,0],[0,1,0],[0.25,1,0],[0.5,1,0],[0.75,1,0],[1,1,0],[0,0.25,0],[0,0.5,0],[0,0.75,0],[1,0.25,0],[1,0.5,0],[1,0.75,0]];outlineConnect=0;fontColor=#232F3E;fillColor=#7AA116;strokeColor=#ffffff;dashed=0;verticalLabelPosition=bottom;verticalAlign=top;align=center;html=1;fontSize=12;fontStyle=0;aspect=fixed;shape=mxgraph.aws4.resourceIcon;resIcon=mxgraph.aws4.s3;" vertex="1" parent="1">
          <mxGeometry x="620" y="100" width="78" height="78" as="geometry" />
        </mxCell>
        <mxCell id="DP5WLWnt--YZi4dTRAAo-30" style="edgeStyle=orthogonalEdgeStyle;rounded=0;orthogonalLoop=1;jettySize=auto;html=1;entryX=0.5;entryY=1;entryDx=0;entryDy=0;entryPerimeter=0;" edge="1" parent="1" source="DP5WLWnt--YZi4dTRAAo-2" target="DP5WLWnt--YZi4dTRAAo-8">
          <mxGeometry relative="1" as="geometry" />
        </mxCell>
        <mxCell id="DP5WLWnt--YZi4dTRAAo-52" style="edgeStyle=elbowEdgeStyle;rounded=0;orthogonalLoop=1;jettySize=auto;html=1;" edge="1" parent="1" source="DP5WLWnt--YZi4dTRAAo-40" target="DP5WLWnt--YZi4dTRAAo-44">
          <mxGeometry relative="1" as="geometry" />
        </mxCell>
        <mxCell id="DP5WLWnt--YZi4dTRAAo-40" value="" style="verticalLabelPosition=bottom;html=1;verticalAlign=top;align=center;strokeColor=none;fillColor=#00BEF2;shape=mxgraph.azure.git_repository;" vertex="1" parent="1">
          <mxGeometry x="470" y="510" width="50" height="50" as="geometry" />
        </mxCell>
        <mxCell id="DP5WLWnt--YZi4dTRAAo-44" value="" style="verticalLabelPosition=bottom;html=1;verticalAlign=top;align=center;strokeColor=none;fillColor=#00BEF2;shape=mxgraph.azure.github_code;pointerEvents=1;" vertex="1" parent="1">
          <mxGeometry x="474" y="599" width="50" height="50" as="geometry" />
        </mxCell>
        <mxCell id="DP5WLWnt--YZi4dTRAAo-61" value="" style="sketch=0;points=[[0,0,0],[0.25,0,0],[0.5,0,0],[0.75,0,0],[1,0,0],[0,1,0],[0.25,1,0],[0.5,1,0],[0.75,1,0],[1,1,0],[0,0.25,0],[0,0.5,0],[0,0.75,0],[1,0.25,0],[1,0.5,0],[1,0.75,0]];outlineConnect=0;fontColor=#232F3E;fillColor=#E7157B;strokeColor=#ffffff;dashed=0;verticalLabelPosition=bottom;verticalAlign=top;align=center;html=1;fontSize=12;fontStyle=0;aspect=fixed;shape=mxgraph.aws4.resourceIcon;resIcon=mxgraph.aws4.managed_workflows_for_apache_airflow;" vertex="1" parent="1">
          <mxGeometry x="130" y="571" width="78" height="78" as="geometry" />
        </mxCell>
        <mxCell id="DP5WLWnt--YZi4dTRAAo-77" value="SFTP Server" style="text;html=1;align=center;verticalAlign=middle;whiteSpace=wrap;rounded=0;" vertex="1" parent="1">
          <mxGeometry x="50" y="170" width="62" height="30" as="geometry" />
        </mxCell>
        <mxCell id="DP5WLWnt--YZi4dTRAAo-78" value="Target Warehouse" style="text;html=1;align=center;verticalAlign=middle;whiteSpace=wrap;rounded=0;" vertex="1" parent="1">
          <mxGeometry x="836" y="330" width="62" height="30" as="geometry" />
        </mxCell>
        <mxCell id="DP5WLWnt--YZi4dTRAAo-79" value="S3 Bucket" style="text;html=1;align=center;verticalAlign=middle;whiteSpace=wrap;rounded=0;" vertex="1" parent="1">
          <mxGeometry x="600" y="180" width="62" height="30" as="geometry" />
        </mxCell>
        <mxCell id="DP5WLWnt--YZi4dTRAAo-80" value="S3 Bucket" style="text;html=1;align=center;verticalAlign=middle;whiteSpace=wrap;rounded=0;" vertex="1" parent="1">
          <mxGeometry x="430" y="180" width="62" height="30" as="geometry" />
        </mxCell>
        <mxCell id="DP5WLWnt--YZi4dTRAAo-81" value="S3 Bucket" style="text;html=1;align=center;verticalAlign=middle;whiteSpace=wrap;rounded=0;" vertex="1" parent="1">
          <mxGeometry x="220" y="180" width="62" height="30" as="geometry" />
        </mxCell>
        <mxCell id="DP5WLWnt--YZi4dTRAAo-82" value="Mining JOB" style="text;html=1;align=center;verticalAlign=middle;whiteSpace=wrap;rounded=0;" vertex="1" parent="1">
          <mxGeometry x="210" y="320" width="62" height="30" as="geometry" />
        </mxCell>
        <mxCell id="DP5WLWnt--YZi4dTRAAo-83" value="Cleaning &amp;amp; Transformation&amp;nbsp;" style="text;html=1;align=center;verticalAlign=middle;whiteSpace=wrap;rounded=0;" vertex="1" parent="1">
          <mxGeometry x="430" y="330" width="80" height="30" as="geometry" />
        </mxCell>
        <mxCell id="DP5WLWnt--YZi4dTRAAo-84" value="Merge &amp;amp; Fact" style="text;html=1;align=center;verticalAlign=middle;whiteSpace=wrap;rounded=0;" vertex="1" parent="1">
          <mxGeometry x="620" y="320" width="62" height="30" as="geometry" />
        </mxCell>
        <mxCell id="DP5WLWnt--YZi4dTRAAo-85" value="RAW Layer" style="text;html=1;align=center;verticalAlign=middle;whiteSpace=wrap;rounded=0;" vertex="1" parent="1">
          <mxGeometry x="253" y="70" width="72" height="30" as="geometry" />
        </mxCell>
        <mxCell id="DP5WLWnt--YZi4dTRAAo-86" value="KPI / Fact Layer" style="text;html=1;align=center;verticalAlign=middle;whiteSpace=wrap;rounded=0;" vertex="1" parent="1">
          <mxGeometry x="614" y="70" width="92" height="30" as="geometry" />
        </mxCell>
        <mxCell id="DP5WLWnt--YZi4dTRAAo-87" value="Updated &amp;amp; Cleaned Layer" style="text;html=1;align=center;verticalAlign=middle;whiteSpace=wrap;rounded=0;" vertex="1" parent="1">
          <mxGeometry x="456" y="70" width="92" height="30" as="geometry" />
        </mxCell>
        <mxCell id="DP5WLWnt--YZi4dTRAAo-88" value="Power BI" style="text;html=1;align=center;verticalAlign=middle;whiteSpace=wrap;rounded=0;" vertex="1" parent="1">
          <mxGeometry x="749" y="541" width="62" height="30" as="geometry" />
        </mxCell>
        <mxCell id="DP5WLWnt--YZi4dTRAAo-89" value="Visualization &amp;amp; Reporting" style="text;html=1;align=center;verticalAlign=middle;whiteSpace=wrap;rounded=0;" vertex="1" parent="1">
          <mxGeometry x="680" y="496" width="69" height="30" as="geometry" />
        </mxCell>
        <mxCell id="DP5WLWnt--YZi4dTRAAo-90" value="Scheduling &amp;amp; Maintain Workflow" style="text;html=1;align=center;verticalAlign=middle;whiteSpace=wrap;rounded=0;" vertex="1" parent="1">
          <mxGeometry x="10" y="585" width="120" height="30" as="geometry" />
        </mxCell>
        <mxCell id="DP5WLWnt--YZi4dTRAAo-116" style="edgeStyle=elbowEdgeStyle;rounded=0;orthogonalLoop=1;jettySize=auto;html=1;" edge="1" parent="1" source="DP5WLWnt--YZi4dTRAAo-99" target="DP5WLWnt--YZi4dTRAAo-40">
          <mxGeometry relative="1" as="geometry" />
        </mxCell>
        <mxCell id="DP5WLWnt--YZi4dTRAAo-91" value="Apache Airflow" style="text;html=1;align=center;verticalAlign=middle;whiteSpace=wrap;rounded=0;" vertex="1" parent="1">
          <mxGeometry x="119" y="650" width="91" height="30" as="geometry" />
        </mxCell>
        <mxCell id="DP5WLWnt--YZi4dTRAAo-92" value="Redshift" style="text;html=1;align=center;verticalAlign=middle;whiteSpace=wrap;rounded=0;" vertex="1" parent="1">
          <mxGeometry x="845" y="70" width="100" height="40" as="geometry" />
        </mxCell>
        <mxCell id="DP5WLWnt--YZi4dTRAAo-96" value="" style="image;aspect=fixed;html=1;points=[];align=center;fontSize=12;image=img/lib/azure2/analytics/Power_BI_Embedded.svg;" vertex="1" parent="1">
          <mxGeometry x="754.5" y="477" width="51" height="68" as="geometry" />
        </mxCell>
        <mxCell id="DP5WLWnt--YZi4dTRAAo-97" style="edgeStyle=elbowEdgeStyle;rounded=0;orthogonalLoop=1;jettySize=auto;html=1;entryX=1.067;entryY=0.568;entryDx=0;entryDy=0;entryPerimeter=0;" edge="1" parent="1" source="DP5WLWnt--YZi4dTRAAo-12" target="DP5WLWnt--YZi4dTRAAo-96">
          <mxGeometry relative="1" as="geometry" />
        </mxCell>
        <mxCell id="DP5WLWnt--YZi4dTRAAo-100" value="Git-Hub" style="text;html=1;align=center;verticalAlign=middle;whiteSpace=wrap;rounded=0;" vertex="1" parent="1">
          <mxGeometry x="414" y="609" width="62" height="30" as="geometry" />
        </mxCell>
        <mxCell id="DP5WLWnt--YZi4dTRAAo-107" value="" style="html=1;rounded=0;edgeStyle=elbowEdgeStyle;elbow=vertical;entryX=0.5;entryY=0;entryDx=0;entryDy=0;entryPerimeter=0;" edge="1" parent="1" source="DP5WLWnt--YZi4dTRAAo-5" target="DP5WLWnt--YZi4dTRAAo-61">
          <mxGeometry width="100" relative="1" as="geometry">
            <mxPoint x="780" y="430" as="sourcePoint" />
            <mxPoint x="160" y="430" as="targetPoint" />
            <Array as="points">
              <mxPoint x="480" y="470" />
              <mxPoint x="420" y="470" />
              <mxPoint x="480" y="410" />
            </Array>
          </mxGeometry>
        </mxCell>
        <mxCell id="DP5WLWnt--YZi4dTRAAo-114" value="" style="endArrow=classic;html=1;rounded=0;entryX=0.5;entryY=0;entryDx=0;entryDy=0;entryPerimeter=0;" edge="1" parent="1" target="DP5WLWnt--YZi4dTRAAo-40">
          <mxGeometry width="50" height="50" relative="1" as="geometry">
            <mxPoint x="495" y="470" as="sourcePoint" />
            <mxPoint x="450" y="370" as="targetPoint" />
          </mxGeometry>
        </mxCell>
        <mxCell id="DP5WLWnt--YZi4dTRAAo-117" value="" style="edgeStyle=elbowEdgeStyle;rounded=0;orthogonalLoop=1;jettySize=auto;html=1;" edge="1" parent="1" source="DP5WLWnt--YZi4dTRAAo-91" target="DP5WLWnt--YZi4dTRAAo-99">
          <mxGeometry relative="1" as="geometry">
            <mxPoint x="210" y="665" as="sourcePoint" />
            <mxPoint x="470" y="535" as="targetPoint" />
          </mxGeometry>
        </mxCell>
        <mxCell id="DP5WLWnt--YZi4dTRAAo-99" value="Repository &amp;amp; Branches" style="text;html=1;align=center;verticalAlign=middle;whiteSpace=wrap;rounded=0;" vertex="1" parent="1">
          <mxGeometry x="376" y="520" width="100" height="30" as="geometry" />
        </mxCell>
        <mxCell id="DP5WLWnt--YZi4dTRAAo-118" value="" style="rounded=0;whiteSpace=wrap;html=1;fillColor=none;strokeColor=#0e55fb;" vertex="1" parent="1">
          <mxGeometry x="90" y="250" width="843" height="124" as="geometry" />
        </mxCell>
        <mxCell id="DP5WLWnt--YZi4dTRAAo-119" value="" style="rounded=0;whiteSpace=wrap;html=1;fillColor=none;strokeColor=#0e55fb;" vertex="1" parent="1">
          <mxGeometry x="198" y="67" width="562" height="146" as="geometry" />
        </mxCell>
        <mxCell id="DP5WLWnt--YZi4dTRAAo-120" value="" style="rounded=0;whiteSpace=wrap;html=1;fillColor=none;strokeColor=#0e55fb;" vertex="1" parent="1">
          <mxGeometry x="21" y="77" width="160" height="124" as="geometry" />
        </mxCell>
        <mxCell id="DP5WLWnt--YZi4dTRAAo-121" value="" style="rounded=0;whiteSpace=wrap;html=1;fillColor=none;strokeColor=#0e55fb;" vertex="1" parent="1">
          <mxGeometry x="4.5" y="556" width="228.5" height="128" as="geometry" />
        </mxCell>
        <mxCell id="DP5WLWnt--YZi4dTRAAo-122" value="" style="rounded=0;whiteSpace=wrap;html=1;fillColor=none;strokeColor=#0e55fb;" vertex="1" parent="1">
          <mxGeometry x="346.75" y="496" width="228.5" height="163" as="geometry" />
        </mxCell>
        <mxCell id="DP5WLWnt--YZi4dTRAAo-123" value="" style="rounded=0;whiteSpace=wrap;html=1;fillColor=none;strokeColor=#0e55fb;" vertex="1" parent="1">
          <mxGeometry x="673" y="448" width="180" height="131" as="geometry" />
        </mxCell>
        <mxCell id="DP5WLWnt--YZi4dTRAAo-124" value="&lt;h1 style=&quot;margin-top: 0px;&quot;&gt;Reporting &amp;amp; Visualization&lt;/h1&gt;" style="text;html=1;whiteSpace=wrap;overflow=hidden;rounded=0;" vertex="1" parent="1">
          <mxGeometry x="860" y="457" width="180" height="72" as="geometry" />
        </mxCell>
        <mxCell id="DP5WLWnt--YZi4dTRAAo-125" value="&lt;h1 style=&quot;margin-top: 0px;&quot;&gt;CI/CD Deployment&lt;/h1&gt;" style="text;html=1;whiteSpace=wrap;overflow=hidden;rounded=0;" vertex="1" parent="1">
          <mxGeometry x="360" y="663" width="219" height="42" as="geometry" />
        </mxCell>
        <mxCell id="DP5WLWnt--YZi4dTRAAo-126" value="&lt;h1 style=&quot;margin-top: 0px;&quot;&gt;Sheduling &amp;amp; Monitering&lt;/h1&gt;" style="text;html=1;whiteSpace=wrap;overflow=hidden;rounded=0;" vertex="1" parent="1">
          <mxGeometry x="4.5" y="690" width="275.5" height="42" as="geometry" />
        </mxCell>
        <mxCell id="DP5WLWnt--YZi4dTRAAo-127" value="&lt;h1 style=&quot;margin-top: 0px;&quot;&gt;Task Worker &amp;amp; Nodes&lt;/h1&gt;" style="text;html=1;whiteSpace=wrap;overflow=hidden;rounded=0;" vertex="1" parent="1">
          <mxGeometry x="942" y="275.5" width="161" height="73" as="geometry" />
        </mxCell>
        <mxCell id="DP5WLWnt--YZi4dTRAAo-129" value="&lt;h1 style=&quot;margin-top: 0px;&quot;&gt;Data Lake&lt;/h1&gt;" style="text;html=1;whiteSpace=wrap;overflow=hidden;rounded=0;" vertex="1" parent="1">
          <mxGeometry x="392" y="23" width="265" height="55" as="geometry" />
        </mxCell>
        <mxCell id="DP5WLWnt--YZi4dTRAAo-130" value="&lt;h1 style=&quot;margin-top: 0px;&quot;&gt;Source&lt;/h1&gt;" style="text;html=1;whiteSpace=wrap;overflow=hidden;rounded=0;" vertex="1" parent="1">
          <mxGeometry x="41" y="40" width="161" height="47" as="geometry" />
        </mxCell>
        <mxCell id="DP5WLWnt--YZi4dTRAAo-131" value="&lt;h1 style=&quot;margin-top: 0px;&quot;&gt;Data Warehouse&lt;/h1&gt;" style="text;html=1;whiteSpace=wrap;overflow=hidden;rounded=0;" vertex="1" parent="1">
          <mxGeometry x="951" y="107" width="200" height="73" as="geometry" />
        </mxCell>
        <mxCell id="DP5WLWnt--YZi4dTRAAo-132" value="" style="rounded=0;whiteSpace=wrap;html=1;fillColor=none;strokeColor=#0e55fb;" vertex="1" parent="1">
          <mxGeometry x="820" y="68" width="127" height="136" as="geometry" />
        </mxCell>
      </root>
    </mxGraphModel>
  </diagram>
</mxfile>
